<svg xmlns="http://www.w3.org/2000/svg" width="1024" height="1024" viewBox="0 0 1024 1024" version="1.1"><path d="M 507.581 82.649 C 507.104 83.892, 507.261 84.029, 508.234 83.221 C 509.154 82.457, 510.950 82.664, 514.619 83.956 C 532.725 90.332, 554.128 110.311, 566.371 132.266 C 571.049 140.654, 572.679 142.974, 571.279 139.250 C 567.901 130.263, 551.166 108.231, 541.264 99.733 C 539.194 97.957, 537.275 96.238, 537 95.913 C 535.538 94.188, 524.956 87.611, 519.626 85.115 C 511.235 81.186, 508.368 80.599, 507.581 82.649 M 508.199 88.500 C 508.171 90.150, 508.509 93.525, 508.949 96 C 509.540 99.319, 509.763 99.713, 509.801 97.500 C 509.829 95.850, 509.491 92.475, 509.051 90 C 508.460 86.681, 508.237 86.287, 508.199 88.500 M 510.206 110.381 C 510.093 115.815, 509.288 124.740, 508.418 130.215 C 507.547 135.689, 507.045 140.378, 507.301 140.635 C 508.432 141.766, 511.106 117.790, 510.773 109.500 L 510.411 100.500 510.206 110.381 M 502.464 155.185 C 501.507 158.108, 499.630 162.682, 498.294 165.349 C 496.959 168.017, 496.083 170.417, 496.349 170.683 C 496.615 170.949, 497.815 168.991, 499.015 166.333 C 501.937 159.860, 505.101 150.768, 504.604 150.271 C 504.384 150.051, 503.421 152.262, 502.464 155.185 M 489.470 181.750 C 479.638 197.110, 465.750 210.845, 426.534 243.993 C 424.902 245.372, 419.277 250.732, 414.034 255.904 C 406.030 263.798, 405.786 264.119, 412.512 257.904 C 416.918 253.832, 427.268 244.679, 435.512 237.563 C 454.470 221.200, 468.930 208.005, 475.417 201.150 C 482.064 194.125, 493.149 179, 491.650 179 C 491.419 179, 490.438 180.238, 489.470 181.750 M 588 184.268 C 588 184.416, 589.087 189.349, 590.416 195.230 C 591.745 201.112, 593.148 208.872, 593.534 212.476 C 593.920 216.079, 594.557 219.226, 594.949 219.469 C 595.341 219.711, 595.050 215.767, 594.301 210.705 C 592.863 200.980, 589.121 184, 588.417 184 C 588.188 184, 588 184.121, 588 184.268 M 595.094 225 C 595.059 227.475, 595.425 230.123, 595.908 230.885 C 596.448 231.738, 596.602 230.394, 596.310 227.385 C 595.651 220.612, 595.170 219.668, 595.094 225 M 596 251.622 C 596 266.165, 594.167 281.333, 591.054 292.563 C 590 296.362, 589.305 299.639, 589.510 299.843 C 590.032 300.365, 592.729 290.824, 594.566 281.959 C 596.115 274.481, 597.831 238, 596.633 238 C 596.285 238, 596 244.130, 596 251.622 M 400.828 269.750 C 395.731 275.093, 386.672 287.711, 384.136 293 C 381.814 297.843, 382.095 297.478, 389.124 286.527 C 391.668 282.565, 396.292 276.326, 399.400 272.662 C 405.680 265.259, 406.280 264.036, 400.828 269.750 M 378.266 304.727 C 369.793 323.714, 365.688 345.319, 367.765 360 L 368.826 367.500 368.301 358.462 C 367.343 341.997, 371.324 322.368, 379.125 305.092 C 380.716 301.568, 381.854 298.520, 381.653 298.320 C 381.452 298.119, 379.928 301.002, 378.266 304.727 M 587.992 302.250 C 587.987 302.938, 585.754 308.655, 583.030 314.955 C 580.305 321.255, 578.227 326.561, 578.413 326.746 C 578.849 327.182, 587.735 306.905, 588.576 303.555 C 588.928 302.150, 588.943 301, 588.608 301 C 588.274 301, 587.996 301.563, 587.992 302.250 M 640 316.848 C 640 318.189, 616.954 340.993, 609.125 347.398 C 605.224 350.589, 599.213 354.720, 595.767 356.577 C 588.903 360.276, 588.540 361.274, 595.290 357.888 C 603.417 353.812, 614.627 344.591, 628.149 330.860 C 635.656 323.237, 642.202 317, 642.694 317 C 643.187 317, 644.427 319.030, 645.450 321.511 C 646.474 323.993, 647.497 325.836, 647.725 325.609 C 647.952 325.381, 647.196 323.126, 646.044 320.597 C 644.585 317.393, 643.352 316, 641.975 316 C 640.889 316, 640 316.381, 640 316.848 M 648 327.467 C 648 329.094, 650.365 336.531, 651.176 337.458 C 651.638 337.985, 651.291 335.960, 650.405 332.958 C 648.861 327.725, 648 325.759, 648 327.467 M 575.111 334.138 C 572.655 341.410, 572.354 350.850, 574.449 354.901 C 576.566 358.995, 580.253 361.027, 585.215 360.832 L 589.500 360.664 585.500 360.305 C 580.204 359.830, 577.138 358.167, 575.415 354.835 C 573.386 350.912, 573.664 341.290, 576.003 334.492 C 577.104 331.291, 577.829 328.495, 577.613 328.280 C 577.398 328.064, 576.272 330.701, 575.111 334.138 M 651.793 349 C 652.054 354.775, 652.432 359.688, 652.634 359.917 C 653.297 360.672, 652.779 344.565, 652.041 341.500 C 651.644 339.850, 651.532 343.225, 651.793 349 M 651.588 365.250 C 651.397 365.938, 650.705 369.995, 650.052 374.267 C 649.398 378.539, 647.973 385.064, 646.884 388.767 C 643.925 398.834, 643.735 399.834, 645.513 396 C 647.470 391.780, 650.645 378.803, 651.816 370.234 C 652.590 364.579, 652.475 362.073, 651.588 365.250 M 369.079 370.120 C 368.973 373.630, 374.603 392.397, 377.114 396.904 C 378.216 398.882, 378.789 399.600, 378.388 398.500 C 374.595 388.098, 371.557 378.515, 370.470 373.520 C 369.749 370.209, 369.123 368.679, 369.079 370.120 M 641.200 405.200 C 640.002 408.035, 639.181 410.514, 639.375 410.708 C 639.569 410.902, 640.720 408.753, 641.933 405.933 C 643.147 403.113, 643.968 400.635, 643.759 400.425 C 643.549 400.216, 642.398 402.365, 641.200 405.200 M 379.019 401.275 C 378.977 402.964, 386.115 415.986, 391.748 424.500 C 397.010 432.453, 409.838 447.520, 409.956 445.886 C 409.980 445.548, 407.525 442.654, 404.500 439.456 C 397.508 432.061, 390.127 421.387, 383.915 409.685 C 381.233 404.633, 379.030 400.849, 379.019 401.275 M 635.090 417.982 C 633.326 421.292, 632.100 424, 632.366 424 C 633.031 424, 639.077 412.744, 638.645 412.312 C 638.454 412.121, 636.854 414.672, 635.090 417.982 M 628.593 429.039 C 625.394 433.873, 612.464 447.648, 609.559 449.317 C 608.032 450.194, 583.225 450.632, 513.500 451.013 L 419.500 451.525 512.434 451.763 C 604.395 451.998, 605.413 451.978, 609.613 449.945 C 614.537 447.562, 627.142 433.960, 631.108 426.750 C 632.892 423.507, 631.287 424.967, 628.593 429.039 M 396.750 478.749 C 410.638 478.906, 433.363 478.906, 447.250 478.749 C 461.138 478.592, 449.775 478.464, 422 478.464 C 394.225 478.464, 382.863 478.592, 396.750 478.749 M 364.153 480.067 C 359.050 482.112, 351.956 489.652, 352.039 492.944 C 352.061 493.800, 352.683 493.150, 353.421 491.500 C 355.428 487.018, 361.169 482.044, 366.115 480.501 C 368.527 479.749, 369.600 479.132, 368.500 479.130 C 367.400 479.128, 365.444 479.550, 364.153 480.067 M 533.199 479.744 C 537.984 479.927, 546.084 479.928, 551.199 479.746 C 556.315 479.564, 552.400 479.414, 542.500 479.413 C 532.600 479.412, 528.415 479.561, 533.199 479.744 M 570.750 479.732 C 573.087 479.943, 576.913 479.943, 579.250 479.732 C 581.587 479.522, 579.675 479.349, 575 479.349 C 570.325 479.349, 568.413 479.522, 570.750 479.732 M 628.250 479.728 C 630.313 479.944, 633.688 479.944, 635.750 479.728 C 637.813 479.513, 636.125 479.336, 632 479.336 C 627.875 479.336, 626.188 479.513, 628.250 479.728 M 652.179 480.309 C 658.459 482.115, 663.815 486.380, 666.087 491.384 C 667.115 493.648, 667.966 494.779, 667.978 493.898 C 668.046 488.936, 658.166 480.285, 651.484 479.456 C 647.519 478.965, 647.522 478.969, 652.179 480.309 M 351.058 501.583 C 351.089 504.837, 351.489 509.300, 351.946 511.500 C 352.497 514.156, 352.599 512.308, 352.249 506 C 351.651 495.226, 350.971 492.707, 351.058 501.583 M 668.175 501.566 C 668.079 504.353, 667.519 509.234, 666.931 512.414 C 666.343 515.594, 666.073 518.406, 666.330 518.663 C 667.203 519.537, 669.132 505.324, 668.740 500.901 L 668.349 496.500 668.175 501.566 M 353.077 517.500 C 352.894 523.908, 362.620 537.157, 370.500 541.235 C 379.887 546.093, 376.425 545.976, 511.072 545.988 C 624.901 545.999, 638.120 545.838, 642.376 544.388 C 644.979 543.501, 646.929 542.596, 646.710 542.377 C 646.491 542.158, 644.385 542.658, 642.030 543.489 C 638.297 544.807, 621.542 544.998, 511.124 544.988 C 377.875 544.976, 379.764 545.035, 371.190 540.599 C 363.333 536.534, 357.465 529.159, 354.402 519.500 C 353.705 517.300, 353.108 516.400, 353.077 517.500 M 663.554 524.753 C 661.353 530.088, 655.038 537.412, 650.709 539.651 C 649.117 540.474, 648.069 541.402, 648.380 541.713 C 649.031 542.364, 654.183 538.581, 658.356 534.386 C 661.397 531.329, 666.319 522.446, 665.807 520.938 C 665.638 520.441, 664.624 522.158, 663.554 524.753 M 410.422 575.750 C 410.083 577.263, 409.436 579.962, 408.984 581.750 C 408.531 583.538, 408.512 585, 408.940 585 C 409.368 585, 410.120 582.638, 410.609 579.750 L 411.500 574.500 510.438 574.245 C 588.927 574.043, 609.541 574.250, 610.173 575.245 C 610.744 576.145, 610.974 576.004, 610.985 574.750 C 610.999 573.095, 605.578 573, 511.019 573 L 411.038 573 410.422 575.750 M 613.519 590 C 615.400 602.231, 616.381 607, 617.017 607 C 617.415 607, 616.893 602.837, 615.857 597.750 C 613.928 588.281, 612.554 583.727, 613.519 590 M 405.863 598.971 C 405.031 603.332, 404.647 606.718, 405.007 606.495 C 405.798 606.007, 408.380 592.047, 407.789 591.456 C 407.561 591.228, 406.694 594.609, 405.863 598.971 M 393.644 662.971 C 391.023 676.853, 389.131 688.464, 389.439 688.773 C 389.748 689.081, 390 688.906, 390 688.383 C 390 687.860, 392.042 676.698, 394.537 663.578 C 397.033 650.458, 398.925 639.275, 398.742 638.727 C 398.560 638.179, 396.265 649.088, 393.644 662.971 M 623.176 639.500 C 623.143 640.600, 623.488 643.300, 623.943 645.500 C 624.638 648.863, 624.769 649.022, 624.767 646.500 C 624.763 642.997, 623.269 636.425, 623.176 639.500 M 386.638 699.863 C 386.132 703.026, 384.612 705.066, 378.260 711.111 C 373.992 715.172, 371.864 717.596, 373.532 716.497 C 379.306 712.693, 387.054 703.440, 387.677 699.605 C 387.998 697.622, 388.035 696, 387.759 696 C 387.482 696, 386.978 697.739, 386.638 699.863 M 641.500 710.855 C 644.250 713.768, 647.400 716.627, 648.500 717.211 C 649.600 717.794, 650.275 718.074, 650 717.834 C 649.725 717.594, 646.575 714.734, 643 711.479 L 636.500 705.560 641.500 710.855 M 652.375 719.236 C 671.377 732.050, 683.873 742.301, 686.248 747.023 C 687.678 749.867, 687.997 753.207, 687.998 765.368 L 688 780.235 684.118 784.118 C 679.953 788.282, 680.030 789.474, 684.222 785.750 C 688.528 781.925, 689 779.879, 689 765.034 C 689 748.652, 688.329 746.369, 681.737 740.312 C 675.700 734.765, 657.576 721.312, 653.629 719.449 C 651.908 718.636, 651.344 718.540, 652.375 719.236 M 356 726.931 C 352.975 729.038, 348.475 732.656, 346 734.972 L 341.500 739.183 347 734.753 C 350.025 732.316, 354.637 728.878, 357.250 727.113 C 359.863 725.348, 362 723.701, 362 723.452 C 362 722.766, 361.893 722.828, 356 726.931 M 333.039 779.115 C 332.985 781.338, 336.623 785.761, 339.838 787.382 C 341.999 788.471, 362.736 788.805, 450 789.157 C 509.125 789.395, 540.625 789.296, 520 788.935 C 499.375 788.574, 451 788.215, 412.500 788.136 C 344.207 787.996, 342.419 787.943, 339.193 785.977 C 337.375 784.868, 335.255 782.507, 334.483 780.730 C 333.710 778.954, 333.061 778.227, 333.039 779.115 M 588.322 788.750 C 605.274 788.903, 632.724 788.903, 649.322 788.749 C 665.920 788.595, 652.050 788.470, 618.500 788.470 C 584.950 788.470, 571.370 788.596, 588.322 788.750 M 479.208 819 C 479.175 820.925, 479.509 824.525, 479.949 827 C 481.031 833.079, 481.116 827.369, 480.046 820.500 C 479.409 816.411, 479.256 816.138, 479.208 819 M 541.471 823.425 C 541.093 826.958, 541.021 830.446, 541.313 831.175 C 541.604 831.904, 541.888 830.700, 541.945 828.500 C 542.001 826.300, 542.440 822.813, 542.919 820.750 C 543.398 818.688, 543.423 817, 542.974 817 C 542.526 817, 541.850 819.891, 541.471 823.425 M 481.672 839.848 C 481.976 844.440, 482.601 849.390, 483.061 850.848 C 484.002 853.838, 483.514 847.635, 482.009 837.500 C 481.209 832.111, 481.175 832.350, 481.672 839.848 M 485.535 871 C 486.326 880.516, 488.242 894.092, 488.724 893.609 C 489.183 893.150, 486.131 867.108, 485.430 865.500 C 485.190 864.950, 485.238 867.425, 485.535 871 M 533.529 888.529 C 533.137 892.720, 533.027 896.361, 533.286 896.619 C 533.545 896.878, 534.078 893.661, 534.471 889.471 C 534.863 885.280, 534.973 881.639, 534.714 881.381 C 534.455 881.122, 533.922 884.339, 533.529 888.529 M 528.157 932 C 528.059 933.925, 527.765 937.300, 527.504 939.500 L 527.031 943.500 528.056 939.500 C 528.620 937.300, 528.914 933.925, 528.709 932 L 528.336 928.500 528.157 932 M 525.168 948.661 C 522.979 956.847, 516.769 963, 510.698 963 C 507.185 963, 501.859 959.021, 499.282 954.470 C 498.045 952.287, 497.025 950.996, 497.016 951.602 C 496.955 955.700, 506.255 964.003, 510.898 963.996 C 513.888 963.992, 519.469 960.846, 522.119 957.671 C 524.162 955.225, 527.351 946.554, 526.808 944.925 C 526.613 944.338, 525.875 946.019, 525.168 948.661" stroke="none" fill="#d91204" fill-rule="evenodd"/><path d="M 509.490 82.016 C 509.144 82.575, 508.533 82.829, 508.131 82.581 C 507.729 82.332, 507.330 83.788, 507.245 85.815 C 507.119 88.822, 507.265 89.132, 508.042 87.500 C 508.785 85.940, 508.936 86.417, 508.729 89.666 C 508.583 91.957, 508.862 93.585, 509.349 93.284 C 509.836 92.983, 510.058 94.596, 509.841 96.868 C 509.624 99.141, 509.797 101, 510.224 101 C 510.651 101, 510.947 106.063, 510.882 112.250 C 510.801 119.915, 510.508 122.544, 509.961 120.500 C 509.438 118.543, 509.332 119.761, 509.655 124 C 510.001 128.529, 509.846 130.061, 509.144 129.052 C 508.433 128.029, 508.309 128.882, 508.721 131.955 C 509.083 134.659, 508.937 136.079, 508.333 135.706 C 507.752 135.347, 507.544 136.346, 507.815 138.195 C 508.150 140.477, 507.944 141.084, 507.027 140.517 C 506.131 139.963, 505.966 140.317, 506.433 141.790 C 507.271 144.430, 506.084 149.170, 504.786 148.368 C 504.159 147.980, 504.052 148.590, 504.500 150 C 504.953 151.427, 504.843 152.021, 504.200 151.624 C 503.579 151.240, 503.405 151.831, 503.751 153.155 C 504.112 154.538, 503.933 155.076, 503.251 154.655 C 502.569 154.234, 502.389 154.772, 502.751 156.155 C 503.171 157.762, 502.980 158.106, 502.003 157.502 C 501.130 156.962, 500.932 157.081, 501.410 157.854 C 502.349 159.373, 501.128 163.197, 499.939 162.463 C 499.434 162.150, 499.318 162.666, 499.681 163.612 C 500.046 164.562, 499.929 165.074, 499.420 164.760 C 498.914 164.448, 498.430 165.361, 498.344 166.791 C 498.258 168.220, 497.384 169.977, 496.403 170.695 C 495.421 171.413, 494.940 172, 495.335 172 C 495.729 172, 495.353 173.350, 494.500 175 C 493.647 176.650, 492.585 178, 492.141 178 C 491.697 178, 491.333 178.571, 491.333 179.270 C 491.333 180.549, 486.100 189, 485.308 189 C 485.074 189, 485.203 188.480, 485.595 187.845 C 486.041 187.124, 485.869 186.963, 485.138 187.415 C 484.494 187.813, 484.170 188.466, 484.418 188.867 C 485.090 189.955, 483.261 192.497, 481.786 192.522 C 481.079 192.535, 480.614 193.243, 480.753 194.095 C 480.892 194.948, 479.767 196.738, 478.253 198.073 L 475.500 200.500 478 197.500 L 480.500 194.500 477.794 196.883 C 476.306 198.193, 475.181 199.564, 475.294 199.930 C 475.667 201.132, 470.015 207.174, 468.239 207.473 C 467.282 207.634, 466.595 208.215, 466.710 208.764 C 466.923 209.774, 463.332 213.500, 462.145 213.500 C 461.790 213.500, 461.598 213.795, 461.718 214.155 C 462.003 215.008, 455.391 220.057, 454.784 219.451 C 454.529 219.196, 453.461 220.003, 452.411 221.244 C 450.510 223.488, 450.511 223.492, 452.566 222 C 453.702 221.175, 453.078 221.951, 451.179 223.724 C 449.280 225.498, 447.389 226.740, 446.976 226.485 C 446.564 226.231, 445.613 226.805, 444.863 227.761 C 443.613 229.356, 443.665 229.386, 445.500 228.125 C 446.600 227.369, 446.230 227.938, 444.678 229.390 C 443.125 230.841, 441.498 231.808, 441.061 231.538 C 440.625 231.268, 439.420 232.049, 438.384 233.274 L 436.500 235.500 439 233.596 C 440.375 232.550, 439.799 233.355, 437.720 235.387 C 435.641 237.419, 433.555 238.843, 433.084 238.552 C 432.612 238.260, 431.613 238.805, 430.863 239.761 C 429.607 241.363, 429.657 241.387, 431.500 240.061 C 432.745 239.165, 432.523 239.661, 430.913 241.375 C 429.490 242.890, 427.465 244.256, 426.413 244.410 C 425.361 244.564, 424.493 245.098, 424.485 245.595 C 424.455 247.374, 422.843 249.021, 421.776 248.362 C 421.179 247.993, 420.972 248.146, 421.316 248.702 C 421.916 249.673, 414.128 256.707, 412.903 256.300 C 412.575 256.191, 410.550 257.992, 408.403 260.301 L 404.500 264.500 408.562 261 C 410.797 259.075, 409.447 260.528, 405.562 264.230 C 401.678 267.931, 398.853 270.969, 399.285 270.980 C 399.717 270.991, 399.591 271.896, 399.005 272.990 C 398.420 274.085, 397.451 274.872, 396.853 274.740 C 396.255 274.608, 395.625 275.346, 395.452 276.381 C 395.280 277.415, 394.591 278.765, 393.923 279.381 C 393.001 280.229, 392.901 280.160, 393.508 279.095 C 394.049 278.147, 393.929 277.926, 393.138 278.415 C 392.494 278.813, 392.185 279.491, 392.452 279.922 C 392.718 280.353, 392.242 281.559, 391.394 282.603 C 390.546 283.646, 390.180 283.868, 390.580 283.095 C 391.048 282.195, 390.911 281.937, 390.198 282.378 C 389.587 282.755, 389.323 283.679, 389.612 284.431 C 389.900 285.183, 389.586 286.138, 388.914 286.553 C 388.065 287.078, 387.940 286.879, 388.506 285.905 C 388.981 285.086, 388.946 284.843, 388.423 285.321 C 387.929 285.772, 387.520 286.897, 387.513 287.821 C 387.506 288.744, 386.954 289.393, 386.286 289.262 C 385.537 289.115, 385.315 289.657, 385.706 290.676 C 386.128 291.777, 385.953 292.089, 385.181 291.612 C 384.438 291.152, 384.225 291.424, 384.589 292.371 C 384.900 293.182, 384.332 294.668, 383.327 295.673 C 382.322 296.678, 381.455 298.063, 381.400 298.750 C 381.168 301.653, 380.949 302.087, 380.011 301.507 C 379.424 301.144, 379.290 301.593, 379.681 302.612 C 380.125 303.769, 379.962 304.095, 379.181 303.612 C 378.401 303.130, 378.238 303.456, 378.681 304.612 C 379.164 305.868, 378.985 306.109, 378.015 305.510 C 377.131 304.963, 376.930 305.077, 377.410 305.854 C 378.421 307.490, 377.084 311.170, 375.773 310.360 C 375.136 309.966, 374.979 310.157, 375.392 310.825 C 376.439 312.520, 373.877 320.392, 372.801 318.786 C 372.287 318.018, 372.212 318.669, 372.615 320.399 C 373.064 322.322, 372.937 323.079, 372.239 322.648 C 371.575 322.238, 371.369 322.829, 371.680 324.249 C 372.091 326.125, 371.977 326.250, 370.992 325 C 369.980 323.714, 369.893 323.753, 370.383 325.274 C 370.698 326.249, 370.666 329.155, 370.313 331.731 C 369.830 335.260, 369.489 335.932, 368.931 334.457 C 368.524 333.381, 368.357 335.200, 368.560 338.500 C 368.790 342.242, 368.660 343.395, 368.215 341.565 C 367.818 339.936, 367.500 344.612, 367.500 352.065 C 367.500 359.860, 367.794 364.031, 368.201 362 C 368.669 359.663, 368.768 360.488, 368.499 364.481 C 368.210 368.784, 368.386 370.046, 369.128 368.981 C 369.877 367.905, 370.019 368.717, 369.648 371.948 C 369.283 375.128, 369.427 375.983, 370.153 374.948 C 370.886 373.902, 371.006 374.472, 370.586 377 C 370.216 379.217, 370.329 379.993, 370.893 379.117 C 371.552 378.092, 371.960 378.540, 372.465 380.842 C 372.841 382.552, 372.820 384.482, 372.420 385.130 C 371.934 385.916, 372.124 386.041, 372.991 385.505 C 373.994 384.885, 374.137 385.364, 373.615 387.601 C 373.087 389.868, 373.183 390.173, 374.056 389 C 374.969 387.775, 375.083 387.912, 374.680 389.751 C 374.366 391.185, 374.573 391.764, 375.251 391.345 C 375.933 390.924, 376.112 391.462, 375.751 392.845 C 375.440 394.032, 375.529 394.791, 375.947 394.533 C 376.365 394.274, 377.223 395.195, 377.854 396.578 C 379.453 400.088, 379.222 401.013, 377.500 398 C 376.714 396.625, 376.071 395.950, 376.071 396.500 C 376.071 397.880, 378.913 402.741, 378.995 401.500 C 379.031 400.950, 379.521 401.291, 380.085 402.258 C 380.648 403.225, 380.789 404.532, 380.400 405.162 C 379.930 405.922, 380.137 406.033, 381.015 405.490 C 381.985 404.891, 382.164 405.132, 381.681 406.388 C 381.238 407.544, 381.401 407.870, 382.181 407.388 C 382.962 406.905, 383.125 407.231, 382.681 408.388 C 382.238 409.544, 382.401 409.870, 383.181 409.388 C 383.962 408.905, 384.125 409.231, 383.681 410.388 C 383.238 411.544, 383.401 411.870, 384.181 411.388 C 384.962 410.905, 385.125 411.231, 384.681 412.388 C 384.238 413.544, 384.401 413.870, 385.181 413.388 C 385.951 412.913, 386.129 413.220, 385.714 414.304 C 385.369 415.202, 385.587 416.245, 386.198 416.622 C 386.918 417.067, 387.024 416.848, 386.500 416 C 385.949 415.108, 386.080 414.932, 386.914 415.447 C 387.586 415.862, 387.857 416.931, 387.515 417.821 C 387.174 418.711, 387.215 419.118, 387.607 418.726 C 388.543 417.790, 391.288 421.726, 390.542 422.933 C 390.226 423.444, 390.494 424.187, 391.138 424.585 C 391.919 425.068, 392.039 424.873, 391.500 424 C 390.949 423.108, 391.080 422.932, 391.914 423.447 C 392.586 423.862, 392.900 424.817, 392.612 425.569 C 392.323 426.321, 392.587 427.245, 393.198 427.622 C 393.918 428.067, 394.024 427.848, 393.500 427 C 392.958 426.123, 393.081 425.932, 393.872 426.421 C 394.522 426.822, 394.929 427.894, 394.777 428.803 C 394.624 429.712, 395.079 430.465, 395.786 430.478 C 397.231 430.503, 399.096 433.036, 398.445 434.089 C 398.212 434.465, 398.805 435.387, 399.761 436.137 C 401.365 437.395, 401.387 437.345, 400.045 435.500 C 399.244 434.400, 401.157 436.149, 404.295 439.386 C 407.433 442.623, 410 445.660, 410 446.136 C 410 446.611, 410.563 446.887, 411.250 446.750 C 411.938 446.612, 412.388 447.062, 412.250 447.750 C 412.113 448.437, 412.338 448.947, 412.750 448.882 C 414.735 448.568, 416.057 449.099, 415.507 449.989 C 415.157 450.555, 415.558 450.723, 416.448 450.382 C 417.302 450.054, 418 450.172, 418 450.643 C 418 451.114, 460.707 451.500, 512.905 451.500 C 565.102 451.500, 607.289 451.123, 606.655 450.663 C 605.959 450.159, 606.394 450.023, 607.751 450.320 C 608.990 450.591, 609.751 450.405, 609.442 449.907 C 608.924 449.069, 610.370 448.567, 612.324 448.906 C 612.778 448.985, 612.908 448.660, 612.613 448.183 C 612.021 447.225, 617.912 441.119, 619.500 441.046 C 620.050 441.021, 620.500 440.438, 620.500 439.750 C 620.500 439.063, 621.063 438.500, 621.750 438.500 C 622.438 438.500, 622.924 438.275, 622.831 438 C 622.436 436.832, 625.159 433.040, 626.234 433.260 C 626.880 433.392, 627.486 432.938, 627.580 432.250 C 627.673 431.563, 627.806 430.523, 627.875 429.941 C 627.944 429.359, 628.520 429.203, 629.155 429.595 C 629.868 430.037, 630.038 429.870, 629.598 429.159 C 629.197 428.510, 630.111 426.845, 631.694 425.341 C 633.237 423.873, 633.934 423, 633.242 423.400 C 632.248 423.975, 632.226 423.598, 633.139 421.595 C 633.773 420.202, 634.671 419.297, 635.135 419.583 C 635.598 419.870, 635.681 419.332, 635.319 418.388 C 634.875 417.231, 635.038 416.905, 635.819 417.388 C 636.535 417.831, 636.781 417.594, 636.464 416.767 C 636.182 416.031, 636.749 414.546, 637.725 413.465 C 638.701 412.384, 639.545 410.938, 639.600 410.250 C 639.832 407.347, 640.051 406.913, 640.989 407.493 C 641.576 407.856, 641.710 407.407, 641.319 406.388 C 640.898 405.292, 641.049 404.912, 641.737 405.337 C 642.434 405.768, 642.614 405.241, 642.249 403.845 C 641.865 402.377, 642.051 401.914, 642.831 402.396 C 643.574 402.855, 643.768 402.558, 643.382 401.552 C 643.053 400.696, 643.309 400, 643.952 400 C 644.593 400, 644.838 399.547, 644.496 398.994 C 643.748 397.783, 646.078 390.930, 647.037 391.523 C 647.408 391.752, 647.486 390.761, 647.211 389.321 C 646.904 387.719, 647.098 386.943, 647.711 387.321 C 648.323 387.699, 648.517 386.923, 648.211 385.321 C 647.916 383.779, 648.106 382.948, 648.674 383.299 C 649.247 383.652, 649.454 382.639, 649.185 380.805 C 648.919 378.993, 649.125 377.960, 649.685 378.305 C 650.236 378.646, 650.500 377.546, 650.311 375.697 C 650.047 373.113, 650.160 372.883, 650.897 374.500 C 651.507 375.836, 651.624 374.540, 651.249 370.595 C 650.924 367.169, 651.069 364.924, 651.594 365.249 C 652.115 365.571, 652.500 361.004, 652.500 354.505 C 652.500 348.288, 652.123 343.432, 651.663 343.714 C 651.202 343.995, 650.961 342.937, 651.126 341.362 C 651.291 339.787, 651.063 337.911, 650.619 337.193 C 650.175 336.474, 650.093 334.674, 650.436 333.193 C 650.841 331.447, 650.745 330.973, 650.163 331.845 C 648.988 333.604, 647.705 328.933, 648.671 326.415 C 649.107 325.280, 648.957 324.908, 648.242 325.350 C 647.082 326.067, 645.512 322.598, 646.369 321.211 C 646.644 320.768, 646.405 319.751, 645.840 318.952 C 645.010 317.781, 644.924 317.848, 645.394 319.302 C 645.763 320.442, 645.582 320.860, 644.901 320.439 C 644.310 320.073, 644.039 318.959, 644.300 317.962 C 644.886 315.720, 642.653 316.327, 639.007 319.399 L 636.514 321.500 638.507 319 L 640.500 316.500 638.244 318.411 C 637.003 319.461, 636.203 320.537, 636.467 320.800 C 636.731 321.064, 635.554 323.038, 633.853 325.186 C 632.151 327.334, 630.507 328.840, 630.199 328.532 C 629.469 327.803, 623.940 333.093, 624.494 333.991 C 625.056 334.899, 617.662 342.078, 615.888 342.346 C 613.682 342.680, 611.920 344.061, 612.500 345.001 C 613.137 346.031, 609.009 349.123, 607.906 348.442 C 607.484 348.181, 606.813 348.494, 606.415 349.138 C 605.930 349.922, 606.156 350.056, 607.095 349.545 C 607.868 349.124, 607.150 349.940, 605.500 351.358 C 603.850 352.775, 601.952 353.744, 601.282 353.511 C 600.612 353.278, 599.755 353.587, 599.378 354.198 C 598.937 354.911, 599.195 355.048, 600.095 354.580 C 600.868 354.180, 600.613 354.570, 599.529 355.448 C 598.444 356.326, 596.959 356.814, 596.227 356.534 C 595.405 356.218, 595.170 356.466, 595.612 357.181 C 596.095 357.962, 595.769 358.125, 594.612 357.681 C 593.668 357.319, 593.142 357.421, 593.442 357.907 C 594.194 359.123, 591.371 360.079, 589.336 359.299 C 588.217 358.869, 587.909 359.043, 588.395 359.830 C 589.534 361.674, 581.359 361.282, 578.414 359.352 C 577.030 358.445, 575.246 356.442, 574.449 354.901 C 572.137 350.431, 572.819 333.648, 575.169 337.165 C 575.729 338.004, 575.809 337.422, 575.385 335.601 C 574.863 333.364, 575.006 332.885, 576.009 333.505 C 576.870 334.038, 577.066 333.916, 576.590 333.146 C 575.570 331.496, 576.917 327.831, 578.242 328.650 C 578.947 329.085, 579.111 328.733, 578.701 327.664 C 577.921 325.629, 578.877 322.806, 580.093 323.558 C 580.579 323.858, 580.681 323.332, 580.319 322.388 C 579.875 321.231, 580.038 320.905, 580.819 321.388 C 581.599 321.870, 581.762 321.544, 581.319 320.388 C 580.836 319.132, 581.015 318.891, 581.985 319.490 C 582.869 320.037, 583.070 319.923, 582.590 319.146 C 581.651 317.627, 582.872 313.803, 584.061 314.537 C 584.566 314.850, 584.682 314.334, 584.319 313.388 C 583.898 312.292, 584.049 311.912, 584.737 312.337 C 585.434 312.768, 585.614 312.241, 585.249 310.845 C 584.865 309.377, 585.051 308.914, 585.831 309.396 C 586.598 309.869, 586.759 309.536, 586.319 308.388 C 585.898 307.292, 586.049 306.912, 586.737 307.337 C 587.434 307.768, 587.614 307.241, 587.249 305.845 C 586.888 304.462, 587.067 303.924, 587.749 304.345 C 588.431 304.766, 588.611 304.228, 588.249 302.845 C 587.891 301.475, 588.069 300.925, 588.738 301.338 C 589.317 301.696, 590.063 301.279, 590.395 300.412 C 591.323 297.994, 591.088 297.335, 589.890 299 C 588.993 300.248, 588.911 300.192, 589.406 298.668 C 589.733 297.661, 590.007 296.311, 590.015 295.668 C 590.024 294.995, 590.447 295.135, 591.014 296 C 591.712 297.065, 591.828 296.485, 591.414 294 C 590.970 291.334, 591.090 290.857, 591.914 292 C 592.739 293.143, 592.858 292.666, 592.414 290 C 591.978 287.379, 592.097 286.877, 592.887 288 C 593.677 289.121, 593.820 288.490, 593.453 285.500 C 593.083 282.481, 593.198 281.990, 593.919 283.500 C 594.616 284.960, 594.751 284.149, 594.419 280.500 C 594.096 276.953, 594.232 276.081, 594.887 277.500 C 595.531 278.897, 595.692 277.690, 595.420 273.500 C 595.201 270.113, 595.351 268.498, 595.766 269.793 C 596.170 271.054, 596.500 262.435, 596.500 250.638 C 596.500 238.842, 596.127 229.421, 595.670 229.704 C 595.214 229.986, 594.932 228.031, 595.045 225.358 C 595.158 222.686, 594.919 219.707, 594.513 218.738 C 594.108 217.768, 593.970 215.655, 594.207 214.041 C 594.462 212.308, 594.242 211.350, 593.672 211.703 C 593.075 212.072, 592.912 210.472, 593.245 207.515 C 593.609 204.294, 593.470 203.183, 592.822 204.115 C 592.140 205.094, 591.973 204.564, 592.248 202.303 C 592.481 200.391, 592.246 199.348, 591.663 199.708 C 591.055 200.084, 590.924 198.842, 591.316 196.405 C 591.778 193.529, 591.667 192.895, 590.893 194 C 590.076 195.167, 589.940 194.897, 590.277 192.780 C 590.544 191.108, 590.322 190.301, 589.699 190.686 C 589.048 191.089, 588.921 190.100, 589.343 187.905 C 589.838 185.329, 589.735 184.865, 588.918 186 C 588.085 187.158, 587.980 186.853, 588.459 184.666 C 588.910 182.607, 588.753 182.035, 587.883 182.573 C 587.042 183.092, 586.853 182.670, 587.249 181.155 C 587.607 179.786, 587.429 179.235, 586.761 179.648 C 586.065 180.078, 585.940 179.373, 586.394 177.565 C 586.880 175.631, 586.745 175.040, 585.933 175.541 C 585.131 176.037, 585.001 175.573, 585.500 174 C 586.019 172.365, 585.882 171.955, 585 172.500 C 584.118 173.045, 583.981 172.635, 584.500 171 C 584.961 169.547, 584.847 168.976, 584.179 169.389 C 582.827 170.225, 581.758 166.795, 582.647 164.477 C 583.103 163.289, 582.964 162.904, 582.242 163.350 C 580.917 164.169, 579.570 160.504, 580.590 158.854 C 581.012 158.172, 580.875 157.959, 580.259 158.340 C 578.910 159.174, 577.870 156.501, 578.701 154.336 C 579.098 153.301, 578.941 152.918, 578.286 153.323 C 577.046 154.090, 574.518 148.589, 575.432 147.111 C 575.775 146.555, 575.116 145.597, 573.967 144.982 C 572.818 144.368, 572.046 143.361, 572.252 142.745 C 572.457 142.129, 571.775 140.775, 570.735 139.735 C 569.696 138.696, 569.100 137.182, 569.411 136.371 C 569.775 135.424, 569.562 135.152, 568.819 135.612 C 568.038 136.095, 567.875 135.769, 568.319 134.612 C 568.710 133.593, 568.576 133.144, 567.989 133.507 C 567.082 134.067, 566.556 132.692, 566.906 130.676 C 566.985 130.222, 566.621 130.116, 566.097 130.440 C 565.162 131.018, 563.389 127.296, 563.827 125.676 C 563.949 125.222, 563.512 125.184, 562.855 125.590 C 562.033 126.098, 561.866 125.793, 562.319 124.612 C 562.732 123.534, 562.585 123.138, 561.922 123.548 C 561.296 123.935, 560.995 123.456, 561.183 122.373 C 561.357 121.367, 560.921 120.535, 560.214 120.522 C 558.783 120.497, 556.902 117.968, 557.542 116.931 C 557.768 116.566, 556.951 115.420, 555.726 114.384 C 553.520 112.517, 553.513 112.518, 555 114.552 C 555.825 115.680, 555.070 115.022, 553.322 113.090 C 551.574 111.157, 550.323 109.287, 550.541 108.933 C 550.760 108.580, 549.715 107.213, 548.219 105.895 L 545.500 103.500 547.991 106.500 C 550.283 109.262, 550.187 109.229, 546.779 106.092 C 544.744 104.217, 543.280 102.355, 543.528 101.955 C 543.775 101.554, 543.195 100.613, 542.239 99.863 C 540.631 98.603, 540.612 98.651, 541.983 100.500 C 543.447 102.475, 543.438 102.477, 541.256 100.616 C 540.041 99.580, 539.331 98.273, 539.678 97.712 C 540.048 97.114, 539.813 96.998, 539.111 97.432 C 537.614 98.356, 534.792 96.145, 535.666 94.732 C 536.019 94.160, 535.856 93.971, 535.302 94.313 C 534.748 94.656, 533.441 94.242, 532.397 93.394 C 531.354 92.546, 531.175 92.182, 532 92.586 C 532.882 93.018, 533.157 92.945, 532.667 92.410 C 532.208 91.910, 531.421 91.444, 530.917 91.375 C 530.413 91.306, 529.523 91.194, 528.941 91.125 C 528.359 91.056, 528.157 90.555, 528.493 90.011 C 528.856 89.424, 528.407 89.290, 527.388 89.681 C 526.132 90.164, 525.891 89.985, 526.490 89.015 C 527.035 88.135, 526.923 87.930, 526.156 88.403 C 524.796 89.244, 520.684 86.649, 521.726 85.607 C 522.118 85.215, 521.591 85.220, 520.555 85.617 C 519.320 86.091, 518.901 85.969, 519.337 85.263 C 519.768 84.566, 519.241 84.386, 517.845 84.751 C 516.377 85.135, 515.914 84.949, 516.396 84.169 C 516.869 83.402, 516.536 83.241, 515.388 83.681 C 514.335 84.085, 513.917 83.944, 514.306 83.314 C 514.701 82.675, 513.915 82.452, 512.220 82.723 C 510.090 83.062, 509.825 82.926, 511 82.094 C 511.924 81.439, 512.042 81.025, 511.309 81.015 C 510.654 81.007, 509.835 81.457, 509.490 82.016 M 369.746 479.395 C 370.049 479.887, 369.119 480.065, 367.679 479.789 C 366.239 479.514, 365.269 479.626, 365.523 480.038 C 365.935 480.704, 362.143 482.203, 359.500 482.418 C 358.950 482.463, 358.500 483.025, 358.500 483.667 C 358.500 485.162, 357.162 486.500, 355.667 486.500 C 355.025 486.500, 354.463 486.950, 354.418 487.500 C 354.218 489.958, 352.727 493.949, 352.143 493.589 C 351.789 493.370, 351.500 497.406, 351.500 502.558 C 351.500 507.717, 351.844 511.156, 352.266 510.213 C 352.706 509.228, 352.853 510.306, 352.611 512.750 C 352.333 515.556, 352.547 516.780, 353.240 516.352 C 353.913 515.936, 354.110 516.644, 353.789 518.321 C 353.479 519.943, 353.674 520.701, 354.302 520.313 C 354.923 519.930, 355.097 520.523, 354.751 521.845 C 354.386 523.241, 354.566 523.768, 355.263 523.337 C 355.951 522.912, 356.102 523.292, 355.681 524.388 C 355.238 525.544, 355.401 525.870, 356.181 525.388 C 356.962 524.905, 357.125 525.231, 356.681 526.388 C 356.238 527.544, 356.401 527.870, 357.181 527.388 C 357.962 526.905, 358.125 527.231, 357.681 528.388 C 357.319 529.332, 357.421 529.858, 357.907 529.558 C 358.729 529.050, 360.460 531.733, 360.203 533.117 C 360.140 533.457, 361.194 534.773, 362.544 536.042 C 363.895 537.310, 365 538.029, 365 537.639 C 365 537.249, 365.913 537.418, 367.028 538.015 C 368.143 538.612, 368.795 539.523, 368.476 540.039 C 368.148 540.569, 368.643 540.691, 369.612 540.319 C 370.769 539.875, 371.095 540.038, 370.612 540.819 C 370.130 541.599, 370.456 541.762, 371.612 541.319 C 372.769 540.875, 373.095 541.038, 372.612 541.819 C 372.130 542.599, 372.456 542.762, 373.612 542.319 C 374.665 541.915, 375.083 542.056, 374.694 542.686 C 374.297 543.328, 375.038 543.524, 376.679 543.211 C 378.281 542.904, 379.057 543.098, 378.679 543.711 C 378.301 544.323, 379.077 544.517, 380.679 544.211 C 382.119 543.935, 383.048 544.113, 382.744 544.605 C 382.420 545.130, 435.664 545.500, 511.500 545.500 C 582.620 545.500, 640.391 545.241, 639.879 544.925 C 639.368 544.609, 640.610 543.841, 642.640 543.218 C 644.669 542.596, 646.659 542.289, 647.060 542.537 C 647.462 542.785, 648.066 542.269, 648.404 541.391 C 648.764 540.450, 649.652 540.036, 650.560 540.385 C 651.444 540.724, 651.843 540.554, 651.493 539.989 C 650.959 539.125, 652.174 538.598, 654.131 538.842 C 654.478 538.885, 655.603 537.926, 656.631 536.710 L 658.500 534.500 656 536.493 L 653.500 538.486 655.883 535.787 C 657.193 534.303, 658.748 533.181, 659.337 533.294 C 659.927 533.407, 660.486 532.938, 660.580 532.250 C 660.673 531.563, 660.806 530.523, 660.875 529.941 C 660.944 529.359, 661.445 529.157, 661.989 529.493 C 662.576 529.856, 662.710 529.407, 662.319 528.388 C 661.875 527.231, 662.038 526.905, 662.819 527.388 C 663.599 527.870, 663.762 527.544, 663.319 526.388 C 662.875 525.231, 663.038 524.905, 663.819 525.388 C 664.599 525.870, 664.762 525.544, 664.319 524.388 C 663.898 523.292, 664.049 522.912, 664.737 523.337 C 665.434 523.768, 665.614 523.241, 665.249 521.845 C 664.866 520.381, 665.052 519.914, 665.827 520.393 C 666.635 520.892, 666.803 520.131, 666.401 517.800 C 665.987 515.401, 666.109 514.895, 666.847 515.948 C 667.577 516.989, 667.737 516.144, 667.416 512.948 C 667.106 509.864, 667.237 509.113, 667.843 510.500 C 668.411 511.800, 668.619 509.700, 668.435 504.500 C 668.212 498.163, 668.314 497.436, 668.926 501 C 669.574 504.770, 669.724 504.993, 669.850 502.375 C 670.092 497.346, 668.889 492.597, 667.772 494.169 C 667.099 495.116, 666.969 494.851, 667.320 493.249 C 667.637 491.800, 667.429 491.235, 666.737 491.663 C 666.049 492.088, 665.898 491.708, 666.319 490.612 C 666.762 489.456, 666.599 489.130, 665.819 489.612 C 665.061 490.080, 664.867 489.789, 665.258 488.770 C 665.945 486.981, 662.124 483.025, 660.342 483.680 C 659.705 483.914, 658.848 483.562, 658.437 482.898 C 657.932 482.081, 658.113 481.952, 659 482.500 C 659.848 483.024, 660.067 482.918, 659.622 482.198 C 659.245 481.587, 658.202 481.369, 657.304 481.714 C 656.278 482.107, 655.919 481.940, 656.337 481.263 C 656.768 480.566, 656.241 480.386, 654.845 480.751 C 653.569 481.084, 652.934 480.916, 653.291 480.338 C 653.649 479.758, 652.597 479.494, 650.697 479.689 C 647.982 479.966, 647.802 479.862, 649.500 478.998 C 650.863 478.305, 606.533 478.063, 510.347 478.240 C 427.616 478.392, 369.422 478.870, 369.746 479.395 M 533.199 479.744 C 537.984 479.927, 546.084 479.928, 551.199 479.746 C 556.315 479.564, 552.400 479.414, 542.500 479.413 C 532.600 479.412, 528.415 479.561, 533.199 479.744 M 570.750 479.732 C 573.087 479.943, 576.913 479.943, 579.250 479.732 C 581.587 479.522, 579.675 479.349, 575 479.349 C 570.325 479.349, 568.413 479.522, 570.750 479.732 M 628.250 479.728 C 630.313 479.944, 633.688 479.944, 635.750 479.728 C 637.813 479.513, 636.125 479.336, 632 479.336 C 627.875 479.336, 626.188 479.513, 628.250 479.728 M 480.750 546.750 C 508.387 546.898, 553.612 546.898, 581.250 546.750 C 608.887 546.602, 586.275 546.481, 531 546.481 C 475.725 546.481, 453.112 546.602, 480.750 546.750 M 410.810 577.161 C 411.080 578.996, 410.875 580.041, 410.315 579.695 C 409.760 579.352, 409.543 580.337, 409.794 582.053 C 410.032 583.674, 409.788 585, 409.252 585 C 408.716 585, 408.475 586.237, 408.717 587.750 C 409.075 589.988, 408.941 590.221, 407.997 589 C 407.066 587.795, 406.960 588.054, 407.456 590.320 C 408.254 593.965, 406.153 605, 404.239 607.213 C 403.410 608.171, 403.047 609.680, 403.414 610.636 C 404.241 612.791, 403.045 621.146, 402.002 620.501 C 401.576 620.238, 400.993 620.918, 400.707 622.013 C 400.421 623.107, 400.595 623.751, 401.093 623.442 C 401.592 623.134, 401.993 623.921, 401.985 625.191 C 401.972 627.077, 401.782 627.225, 400.948 626 C 400.211 624.918, 400.096 625.615, 400.538 628.500 C 401.007 631.567, 400.890 632.150, 400.038 631 C 399.185 629.850, 399.069 630.433, 399.538 633.500 C 400.018 636.643, 399.902 637.178, 398.994 636 C 398.064 634.793, 397.956 635.040, 398.441 637.263 C 399.260 641.014, 396.888 653.923, 395.849 651.370 C 395.431 650.341, 395.330 651.525, 395.625 654 C 396.044 657.512, 395.910 658.171, 395.015 657 C 394.082 655.778, 393.988 655.923, 394.512 657.782 C 395.347 660.744, 390.874 685.394, 389.802 683.737 C 389.363 683.057, 389.297 684.032, 389.657 685.905 C 390.110 688.260, 389.974 689.102, 389.215 688.633 C 388.462 688.167, 388.282 689.136, 388.642 691.728 C 388.975 694.124, 388.835 695.036, 388.259 694.226 C 387.671 693.399, 387.379 694.675, 387.426 697.864 C 387.495 702.474, 387.164 703.135, 382.025 708.638 C 376.177 714.898, 372.067 718.159, 370.917 717.449 C 370.528 717.208, 369.934 717.731, 369.596 718.609 C 369.254 719.502, 368.338 719.960, 367.524 719.647 C 366.721 719.339, 365.755 719.587, 365.378 720.198 C 364.937 720.911, 365.195 721.048, 366.095 720.580 C 366.868 720.180, 366.646 720.546, 365.603 721.394 C 364.559 722.242, 363.322 722.699, 362.853 722.409 C 362.384 722.119, 362 722.342, 362 722.905 C 362 724.386, 354.848 729.024, 353.678 728.301 C 353.135 727.966, 352.983 728.163, 353.340 728.741 C 353.898 729.644, 351.935 731.141, 349.833 731.414 C 349.467 731.461, 348.792 731.910, 348.333 732.410 C 347.840 732.950, 348.111 732.992, 349 732.514 C 350.142 731.899, 350.233 731.997, 349.381 732.923 C 348.765 733.591, 347.532 734.246, 346.640 734.377 C 344.867 734.637, 334.085 745.751, 334.857 746.523 C 335.119 746.785, 334.899 747, 334.367 747 C 333.836 747, 333.523 748.688, 333.671 750.750 C 333.902 753.964, 333.816 754.143, 333.070 752 C 332.496 750.351, 332.165 754.539, 332.100 764.309 C 332.026 775.292, 332.299 778.933, 333.158 778.403 C 333.951 777.912, 334.137 778.366, 333.751 779.845 C 333.440 781.032, 333.547 781.780, 333.988 781.507 C 334.798 781.007, 336.453 783.861, 336.159 785.250 C 336.071 785.663, 336.337 785.947, 336.750 785.882 C 338.659 785.580, 340.067 786.082, 339.570 786.887 C 339.268 787.375, 339.579 787.754, 340.261 787.730 C 340.942 787.705, 375.250 787.864, 416.500 788.083 L 491.500 788.481 418 788.990 C 374.113 789.295, 411.784 789.500, 511.500 789.500 C 603.350 789.500, 651.500 789.265, 618.500 788.977 L 558.500 788.455 619.655 788.477 C 656.628 788.491, 680.585 788.136, 680.241 787.580 C 679.928 787.074, 680.415 786.945, 681.324 787.294 C 682.343 787.685, 682.885 787.463, 682.738 786.714 C 682.607 786.046, 683.096 785.624, 683.824 785.775 C 684.553 785.926, 684.895 785.639, 684.585 785.138 C 683.870 783.981, 686.442 781.775, 687.395 782.728 C 687.786 783.119, 687.780 782.591, 687.383 781.555 C 686.971 780.481, 687.055 779.916, 687.580 780.239 C 688.126 780.576, 688.500 774.168, 688.500 764.497 C 688.500 755.490, 688.125 748.705, 687.663 749.343 C 687.159 750.041, 687.022 749.607, 687.320 748.249 C 687.637 746.800, 687.429 746.235, 686.737 746.663 C 686.073 747.073, 685.887 746.737, 686.251 745.789 C 686.924 744.034, 680.161 736.994, 678.427 737.645 C 677.837 737.867, 676.487 737.025, 675.427 735.774 L 673.500 733.500 676 735.500 L 678.500 737.500 676.656 735.317 C 675.642 734.117, 674.251 733.350, 673.566 733.613 C 672.881 733.876, 671.686 733.283, 670.910 732.296 C 669.594 730.620, 669.633 730.600, 671.500 732 C 673.338 733.379, 673.393 733.363, 672.177 731.809 C 671.449 730.880, 670.284 730.338, 669.587 730.605 C 668.890 730.872, 667.686 730.283, 666.910 729.296 C 665.594 727.620, 665.633 727.600, 667.500 729 C 669.338 730.379, 669.393 730.363, 668.177 728.809 C 667.449 727.880, 666.257 727.348, 665.528 727.628 C 664.799 727.907, 663.862 727.586, 663.447 726.914 C 662.922 726.065, 663.121 725.940, 664.095 726.506 C 664.868 726.954, 665.150 726.936, 664.721 726.465 C 664.293 725.994, 663.338 725.520, 662.600 725.412 C 661.115 725.194, 656 722.027, 656 721.326 C 656 721.082, 656.520 721.203, 657.155 721.595 C 657.854 722.028, 658.038 721.871, 657.622 721.198 C 657.245 720.587, 656.375 720.303, 655.689 720.566 C 655.004 720.829, 653.556 720.326, 652.471 719.448 C 651.387 718.570, 651.063 718.137, 651.750 718.485 C 653.921 719.585, 653.101 718.124, 650.879 716.935 C 649.251 716.064, 648.931 716.079, 649.500 717 C 651.167 719.697, 646.311 715.949, 641.500 710.825 L 636.501 705.500 642.468 711 L 648.436 716.500 642.519 710 C 639.265 706.425, 636.395 703.275, 636.141 703 C 635.887 702.725, 636.043 703.175, 636.486 704 C 637.156 705.245, 637.056 705.279, 635.897 704.199 C 635.039 703.400, 634.528 700.978, 634.574 697.925 C 634.621 694.724, 634.327 693.407, 633.749 694.226 C 633.192 695.016, 633.083 693.978, 633.462 691.500 C 633.931 688.433, 633.815 687.850, 632.962 689 C 632.110 690.150, 631.993 689.567, 632.462 686.500 C 632.931 683.433, 632.815 682.850, 631.962 684 C 631.110 685.150, 630.993 684.567, 631.462 681.500 C 631.931 678.433, 631.815 677.850, 630.962 679 C 630.110 680.150, 629.993 679.567, 630.462 676.500 C 630.843 674.009, 630.736 673.002, 630.178 673.831 C 628.997 675.585, 627.816 668.460, 628.524 663.852 C 628.891 661.459, 628.793 661.062, 628.181 662.464 C 627.468 664.097, 627.217 663.761, 626.690 660.464 C 626.342 658.284, 626.308 655.375, 626.615 654 C 627.071 651.960, 626.960 651.776, 626.012 653 C 625.097 654.182, 624.980 653.652, 625.462 650.500 C 625.934 647.419, 625.817 646.845, 624.955 648 C 624.097 649.149, 623.957 648.330, 624.354 644.500 C 624.728 640.904, 624.606 640.061, 623.920 641.500 C 623.225 642.960, 623.110 642.285, 623.498 639 C 623.820 636.269, 623.685 635.023, 623.155 635.831 C 621.952 637.664, 620.873 632.026, 621.609 627.750 C 622.058 625.144, 621.937 624.797, 621 626 C 620.066 627.199, 619.948 626.828, 620.410 624.152 C 621.142 619.919, 620.115 615.212, 618.883 617.155 C 618.067 618.442, 617.799 616.928, 617.571 609.750 C 617.532 608.513, 617.083 607.199, 616.574 606.832 C 616.064 606.465, 615.614 603.219, 615.574 599.620 C 615.530 595.698, 615.192 593.762, 614.732 594.788 C 614.296 595.760, 614.175 594.770, 614.453 592.500 C 614.817 589.529, 614.674 588.886, 613.897 590 C 613.128 591.102, 613.013 590.439, 613.462 587.500 C 613.934 584.419, 613.817 583.845, 612.954 585 C 612.088 586.160, 611.960 585.592, 612.389 582.500 C 612.798 579.545, 612.670 578.892, 611.897 580 C 611.128 581.102, 611.013 580.439, 611.462 577.500 C 611.904 574.615, 611.789 573.918, 611.052 575 C 610.355 576.024, 610.026 576.101, 610.015 575.241 C 610.003 574.237, 589.765 573.987, 510.176 574.010 L 410.352 574.038 410.810 577.161 M 689.392 765 C 689.392 772.425, 689.549 775.462, 689.742 771.750 C 689.934 768.038, 689.934 761.962, 689.742 758.250 C 689.549 754.538, 689.392 757.575, 689.392 765 M 479.986 819.250 C 479.979 821.038, 479.745 823.625, 479.466 825 C 479.011 827.243, 479.065 827.294, 479.992 825.500 C 480.766 824, 480.911 825.124, 480.573 830 C 480.246 834.699, 480.378 835.807, 481.046 834 C 481.725 832.167, 481.867 833.234, 481.581 838 C 481.329 842.175, 481.478 843.606, 481.995 842 C 482.662 839.929, 482.850 840.357, 483.087 844.500 C 483.244 847.250, 483.374 851.386, 483.376 853.692 C 483.378 855.997, 483.793 857.628, 484.298 857.316 C 484.825 856.990, 485.013 858.502, 484.739 860.874 C 484.469 863.211, 484.685 865, 485.236 865 C 485.772 865, 486.042 866.762, 485.837 868.916 C 485.631 871.070, 485.856 872.589, 486.336 872.292 C 486.817 871.995, 487.050 874.016, 486.855 876.782 C 486.657 879.590, 486.896 881.566, 487.397 881.256 C 487.906 880.941, 488.061 882.770, 487.755 885.485 C 487.388 888.742, 487.527 889.827, 488.190 888.885 C 488.852 887.945, 488.982 889.043, 488.595 892.302 C 488.189 895.718, 488.348 896.903, 489.147 896.409 C 489.953 895.911, 490.069 897.055, 489.558 900.464 C 489.032 903.969, 489.151 905.025, 490.010 904.494 C 490.814 903.997, 491.081 904.661, 490.874 906.638 C 490.709 908.213, 490.931 910.080, 491.369 910.787 C 491.806 911.495, 491.903 913.969, 491.585 916.287 C 491.142 919.515, 491.244 920.033, 492.020 918.500 C 492.769 917.022, 492.897 918.067, 492.510 922.500 C 492.121 926.962, 492.265 928.115, 493.071 927 C 493.877 925.886, 494.001 926.914, 493.554 931 C 493.101 935.145, 493.225 936.131, 494.059 935 C 494.897 933.864, 495.025 934.712, 494.589 938.500 C 494.162 942.209, 494.291 943.113, 495.088 942 C 495.887 940.883, 496.010 941.649, 495.567 945 C 495.117 948.398, 495.240 949.133, 496.067 948 C 496.919 946.832, 497.024 947.128, 496.541 949.334 C 496.177 950.993, 496.307 951.928, 496.855 951.590 C 498.030 950.863, 499.235 953.811, 498.349 955.245 C 497.961 955.872, 498.165 956.016, 498.845 955.595 C 499.480 955.203, 500.056 955.359, 500.125 955.941 C 500.194 956.523, 500.306 957.413, 500.375 957.917 C 500.535 959.093, 501.907 960.465, 503.083 960.625 C 503.588 960.694, 504.477 960.806, 505.059 960.875 C 505.641 960.944, 505.843 961.445, 505.507 961.989 C 505.144 962.576, 505.593 962.710, 506.612 962.319 C 507.562 961.954, 508.074 962.071, 507.760 962.580 C 507.447 963.086, 508.905 963.500, 511 963.500 C 513.095 963.500, 514.553 963.086, 514.240 962.580 C 513.926 962.071, 514.438 961.954, 515.388 962.319 C 516.466 962.732, 516.862 962.585, 516.452 961.922 C 516.065 961.296, 516.544 960.995, 517.627 961.183 C 518.720 961.373, 519.464 960.897, 519.478 960 C 519.490 959.175, 520.174 958.500, 520.999 958.500 C 521.823 958.500, 522.546 957.825, 522.605 957 C 522.803 954.234, 524.219 951.018, 525.020 951.513 C 525.457 951.782, 525.560 951.032, 525.249 949.845 C 524.903 948.523, 525.077 947.930, 525.698 948.313 C 526.326 948.701, 526.521 947.943, 526.211 946.321 C 525.880 944.593, 526.079 943.931, 526.796 944.374 C 527.539 944.833, 527.693 943.885, 527.285 941.367 C 526.944 939.265, 527.076 937.930, 527.594 938.250 C 528.102 938.565, 528.395 936.545, 528.261 933.656 C 528.081 929.778, 528.258 928.996, 528.975 930.500 C 529.649 931.914, 529.770 930.887, 529.387 927 C 528.982 922.900, 529.120 921.882, 529.929 923 C 530.735 924.115, 530.879 922.962, 530.490 918.500 C 530.113 914.183, 530.241 913.061, 530.948 914.500 C 531.659 915.949, 531.780 914.985, 531.387 911 C 530.969 906.766, 531.106 905.845, 531.980 907 C 532.852 908.151, 532.973 907.221, 532.500 903 C 532.069 899.153, 532.187 897.945, 532.893 898.981 C 533.606 900.026, 533.775 898.704, 533.467 894.481 C 533.156 890.214, 533.286 889.216, 533.921 891 C 534.552 892.773, 534.697 891.610, 534.419 887 C 534.133 882.234, 534.275 881.167, 534.954 883 C 535.622 884.807, 535.754 883.699, 535.427 879 C 535.108 874.395, 535.256 873.083, 535.937 874.500 C 536.623 875.927, 536.765 874.781, 536.432 870.500 C 536.094 866.144, 536.235 865.048, 536.948 866.500 C 537.659 867.949, 537.780 866.985, 537.387 863 C 536.991 858.991, 537.130 857.907, 537.897 859 C 538.663 860.092, 538.798 859.005, 538.392 855 C 537.963 850.758, 538.097 849.843, 538.976 851 C 539.853 852.154, 539.966 851.288, 539.464 847.250 C 539.070 844.073, 539.196 842, 539.783 842 C 540.339 842, 540.560 839.966, 540.301 837.250 C 540.050 834.615, 540.216 833.012, 540.674 833.650 C 541.136 834.293, 541.533 831.062, 541.576 826.317 C 541.631 820.129, 542.037 817.590, 543.076 816.932 C 543.939 816.386, 531.794 816.025, 512.250 816.015 L 480 816 479.986 819.250" stroke="none" fill="#e24527" fill-rule="evenodd"/></svg>